<svg width="255" height="32" viewBox="0 0 255 32" fill="none" xmlns="http://www.w3.org/2000/svg">
<rect x="104" width="64" height="32" rx="16" fill="#DFDFDF"/>
<circle cx="120" cy="16" r="12" fill="black"/>
<path opacity="0.5" d="M204.816 23V18.518L200.586 10.4H203.196L205.986 16.214L208.758 10.4H211.332L207.12 18.518V23H204.816ZM215.492 23.216C214.592 23.216 213.794 23.024 213.098 22.64C212.402 22.256 211.856 21.716 211.46 21.02C211.064 20.324 210.866 19.52 210.866 18.608C210.866 17.684 211.058 16.862 211.442 16.142C211.838 15.422 212.378 14.864 213.062 14.468C213.758 14.06 214.574 13.856 215.51 13.856C216.386 13.856 217.16 14.048 217.832 14.432C218.504 14.816 219.026 15.344 219.398 16.016C219.782 16.676 219.974 17.414 219.974 18.23C219.974 18.362 219.968 18.5 219.956 18.644C219.956 18.788 219.95 18.938 219.938 19.094H213.152C213.2 19.79 213.44 20.336 213.872 20.732C214.316 21.128 214.85 21.326 215.474 21.326C215.942 21.326 216.332 21.224 216.644 21.02C216.968 20.804 217.208 20.528 217.364 20.192H219.704C219.536 20.756 219.254 21.272 218.858 21.74C218.474 22.196 217.994 22.556 217.418 22.82C216.854 23.084 216.212 23.216 215.492 23.216ZM215.51 15.728C214.946 15.728 214.448 15.89 214.016 16.214C213.584 16.526 213.308 17.006 213.188 17.654H217.634C217.598 17.066 217.382 16.598 216.986 16.25C216.59 15.902 216.098 15.728 215.51 15.728ZM224.99 23.216C224.222 23.216 223.592 23.096 223.1 22.856C222.608 22.604 222.242 22.274 222.002 21.866C221.762 21.458 221.642 21.008 221.642 20.516C221.642 19.688 221.966 19.016 222.614 18.5C223.262 17.984 224.234 17.726 225.53 17.726H227.798V17.51C227.798 16.898 227.624 16.448 227.276 16.16C226.928 15.872 226.496 15.728 225.98 15.728C225.512 15.728 225.104 15.842 224.756 16.07C224.408 16.286 224.192 16.61 224.108 17.042H221.858C221.918 16.394 222.134 15.83 222.506 15.35C222.89 14.87 223.382 14.504 223.982 14.252C224.582 13.988 225.254 13.856 225.998 13.856C227.27 13.856 228.272 14.174 229.004 14.81C229.736 15.446 230.102 16.346 230.102 17.51V23H228.14L227.924 21.56C227.66 22.04 227.288 22.436 226.808 22.748C226.34 23.06 225.734 23.216 224.99 23.216ZM225.512 21.416C226.172 21.416 226.682 21.2 227.042 20.768C227.414 20.336 227.648 19.802 227.744 19.166H225.782C225.17 19.166 224.732 19.28 224.468 19.508C224.204 19.724 224.072 19.994 224.072 20.318C224.072 20.666 224.204 20.936 224.468 21.128C224.732 21.32 225.08 21.416 225.512 21.416ZM232.301 23V14.072H234.353L234.569 15.746C234.893 15.17 235.331 14.714 235.883 14.378C236.447 14.03 237.107 13.856 237.863 13.856V16.286H237.215C236.711 16.286 236.261 16.364 235.865 16.52C235.469 16.676 235.157 16.946 234.929 17.33C234.713 17.714 234.605 18.248 234.605 18.932V23H232.301ZM239.438 23V10.04H241.742V23H239.438ZM245.212 26.96L247.282 22.406H246.742L243.268 14.072H245.77L248.272 20.354L250.882 14.072H253.33L247.66 26.96H245.212Z" fill="black"/>
<path d="M1.54041 23V10.4H4.27641L8.29041 18.392L12.2504 10.4H14.9864V23H12.6824V14.306L9.17241 21.2H7.35441L3.84441 14.306V23H1.54041ZM21.661 23.216C20.797 23.216 20.017 23.018 19.321 22.622C18.637 22.226 18.091 21.68 17.683 20.984C17.287 20.276 17.089 19.46 17.089 18.536C17.089 17.612 17.293 16.802 17.701 16.106C18.109 15.398 18.655 14.846 19.339 14.45C20.035 14.054 20.815 13.856 21.679 13.856C22.531 13.856 23.299 14.054 23.983 14.45C24.679 14.846 25.225 15.398 25.621 16.106C26.029 16.802 26.233 17.612 26.233 18.536C26.233 19.46 26.029 20.276 25.621 20.984C25.225 21.68 24.679 22.226 23.983 22.622C23.287 23.018 22.513 23.216 21.661 23.216ZM21.661 21.218C22.261 21.218 22.783 20.996 23.227 20.552C23.671 20.096 23.893 19.424 23.893 18.536C23.893 17.648 23.671 16.982 23.227 16.538C22.783 16.082 22.267 15.854 21.679 15.854C21.067 15.854 20.539 16.082 20.095 16.538C19.663 16.982 19.447 17.648 19.447 18.536C19.447 19.424 19.663 20.096 20.095 20.552C20.539 20.996 21.061 21.218 21.661 21.218ZM28.293 23V14.072H30.327L30.507 15.584C30.783 15.056 31.179 14.636 31.695 14.324C32.223 14.012 32.841 13.856 33.549 13.856C34.653 13.856 35.511 14.204 36.123 14.9C36.735 15.596 37.041 16.616 37.041 17.96V23H34.737V18.176C34.737 17.408 34.581 16.82 34.269 16.412C33.957 16.004 33.471 15.8 32.811 15.8C32.163 15.8 31.629 16.028 31.209 16.484C30.801 16.94 30.597 17.576 30.597 18.392V23H28.293ZM43.2222 23C42.2862 23 41.5362 22.772 40.9722 22.316C40.4082 21.86 40.1262 21.05 40.1262 19.886V15.998H38.5962V14.072H40.1262L40.3962 11.678H42.4302V14.072H44.8422V15.998H42.4302V19.904C42.4302 20.336 42.5202 20.636 42.7002 20.804C42.8922 20.96 43.2162 21.038 43.6722 21.038H44.7882V23H43.2222ZM46.8204 23V10.04H49.1244V15.44C49.4244 14.948 49.8264 14.564 50.3304 14.288C50.8464 14 51.4344 13.856 52.0944 13.856C53.1984 13.856 54.0504 14.204 54.6504 14.9C55.2624 15.596 55.5684 16.616 55.5684 17.96V23H53.2824V18.176C53.2824 17.408 53.1264 16.82 52.8144 16.412C52.5144 16.004 52.0344 15.8 51.3744 15.8C50.7264 15.8 50.1864 16.028 49.7544 16.484C49.3344 16.94 49.1244 17.576 49.1244 18.392V23H46.8204ZM57.7716 23V10.04H60.0756V23H57.7716ZM63.5458 26.96L65.6158 22.406H65.0758L61.6018 14.072H64.1038L66.6058 20.354L69.2158 14.072H71.6638L65.9938 26.96H63.5458Z" fill="black"/>
</svg>
